<?xml version="1.0" standalone="no"?><!DOCTYPE svg PUBLIC "-//W3C//DTD SVG 1.1//EN" "http://www.w3.org/Graphics/SVG/1.1/DTD/svg11.dtd"><svg t="1613899009411" class="icon" viewBox="0 0 1024 1024" version="1.1" xmlns="http://www.w3.org/2000/svg" p-id="2280" xmlns:xlink="http://www.w3.org/1999/xlink" width="64" height="64"><defs><style type="text/css"></style></defs><path d="M640.448 288H960v64H640.448zM640 128h319.552v64H640z m0.448 320H960v64H640.448zM470.656 588.032a162.624 162.624 0 0 0-85.888-300.928 162.816 162.816 0 0 0-162.816 162.944c0 58.304 30.784 109.12 76.864 137.92C163.904 625.728 64 748.864 64 896h66.56a254.656 254.656 0 0 1 254.08-254.592A254.784 254.784 0 0 1 639.04 896h66.56c-0.064-147.136-100.032-270.144-234.944-307.968z m-85.824-41.6a96.448 96.448 0 0 1-96.32-96.384c0-53.12 43.264-96.32 96.32-96.32a96.384 96.384 0 0 1 0 192.704z" fill="#222222" p-id="2281"></path></svg>